<svg width="62" height="23" viewBox="0 0 62 23" fill="none" xmlns="http://www.w3.org/2000/svg">
<path d="M12.2487 5.456C11.5607 4.96 10.9687 4.6 10.4727 4.376C9.97669 4.136 9.40069 4.016 8.74469 4.016C7.43269 4.016 6.30469 4.352 5.36069 5.024C4.64069 5.552 4.10469 6.24 3.75269 7.088C3.40069 7.936 3.22469 8.888 3.22469 9.944C3.22469 10.952 3.45669 11.84 3.92069 12.608C4.38469 13.36 4.98469 13.936 5.72069 14.336C6.45669 14.736 7.22469 14.936 8.02469 14.936C8.82469 14.936 9.51269 14.816 10.0887 14.576C10.6807 14.32 11.1527 13.992 11.5047 13.592C12.0487 12.904 12.3207 11.992 12.3207 10.856C12.3207 10.696 12.1927 10.584 11.9367 10.52C11.6807 10.456 11.3127 10.424 10.8327 10.424L9.10469 10.448C8.64069 10.448 8.27269 10.36 8.00069 10.184C7.72869 10.008 7.59269 9.784 7.59269 9.512C7.59269 9.128 7.72069 8.848 7.97669 8.672C8.23269 8.48 8.57669 8.384 9.00869 8.384C9.52069 8.384 10.2087 8.416 11.0727 8.48C11.9367 8.544 12.5607 8.576 12.9447 8.576C13.5047 8.576 13.9527 8.752 14.2887 9.104C14.6407 9.456 14.8167 9.968 14.8167 10.64C14.8167 11.264 14.6807 11.992 14.4087 12.824C14.1367 13.656 13.7527 14.4 13.2567 15.056C12.7767 15.696 12.0647 16.184 11.1207 16.52C10.1927 16.84 9.16069 17 8.02469 17C7.08069 17 6.16869 16.848 5.28869 16.544C4.40869 16.24 3.67269 15.816 3.08069 15.272C2.34469 14.584 1.76069 13.768 1.32869 12.824C0.912688 11.864 0.704688 10.912 0.704688 9.968C0.704688 8.592 1.02469 7.256 1.66469 5.96C2.32069 4.648 3.20069 3.632 4.30469 2.912C4.78469 2.592 5.45669 2.328 6.32069 2.12C7.18469 1.912 7.97669 1.808 8.69669 1.808C9.81669 1.808 10.8007 1.984 11.6487 2.336C12.4967 2.672 13.1447 3.16 13.5927 3.8C13.7847 4.088 13.8807 4.344 13.8807 4.568C13.8807 4.824 13.7687 5.064 13.5447 5.288C13.3207 5.512 13.0967 5.624 12.8727 5.624C12.7767 5.624 12.6647 5.608 12.5367 5.576C12.4087 5.544 12.3127 5.504 12.2487 5.456ZM18.091 1.592C18.651 1.64 19.139 1.792 19.555 2.048C19.971 2.288 20.179 2.656 20.179 3.152C20.179 3.52 20.003 3.816 19.651 4.04C19.315 4.248 18.907 4.352 18.427 4.352C17.963 4.352 17.643 4.232 17.467 3.992C17.291 3.752 17.203 3.504 17.203 3.248C17.203 2.768 17.251 2.368 17.347 2.048C17.459 1.728 17.707 1.576 18.091 1.592ZM20.011 12.224V12.92C20.011 13.544 20.027 14.136 20.059 14.696C20.107 15.24 20.163 15.792 20.227 16.352C20.211 16.512 20.091 16.68 19.867 16.856C19.643 17.016 19.443 17.096 19.267 17.096C18.963 17.096 18.651 17.04 18.331 16.928C18.027 16.8 17.843 16.648 17.779 16.472C17.683 15.96 17.635 15.504 17.635 15.104C17.635 13.792 17.595 12.32 17.515 10.688C17.451 9.248 17.419 8.24 17.419 7.664C17.419 7.376 17.563 7.128 17.851 6.92C18.139 6.712 18.443 6.608 18.763 6.608C19.227 6.608 19.547 6.712 19.723 6.92C19.915 7.128 20.011 7.456 20.011 7.904V12.224ZM31.1916 16.952C31.6236 17.256 31.9116 17.592 32.0556 17.96C32.2156 18.328 32.2956 18.84 32.2956 19.496C32.2956 19.816 32.1996 20.136 32.0076 20.456C31.8316 20.776 31.6476 21.008 31.4556 21.152C29.9356 21.984 28.4156 22.4 26.8956 22.4C26.1436 22.4 25.4956 22.304 24.9516 22.112C24.4076 21.92 23.8956 21.664 23.4156 21.344C23.0956 21.104 22.8316 20.768 22.6236 20.336C22.4316 19.92 22.3356 19.504 22.3356 19.088C22.3356 18.512 22.5116 18.008 22.8636 17.576C23.2316 17.144 23.7196 16.832 24.3276 16.64C24.2156 16.4 24.1596 16.12 24.1596 15.8C24.1596 15.496 24.3836 15.04 24.8316 14.432C24.0636 14.176 23.4556 13.72 23.0076 13.064C22.5756 12.408 22.3596 11.64 22.3596 10.76C22.3596 10.216 22.4876 9.736 22.7436 9.32C22.9996 8.888 23.3836 8.392 23.8956 7.832C24.2476 7.448 24.6956 7.168 25.2396 6.992C25.7836 6.816 26.4636 6.728 27.2796 6.728C27.8556 6.728 28.5676 6.856 29.4156 7.112C30.4236 6.408 31.3116 6.056 32.0796 6.056C32.2716 6.056 32.4876 6.104 32.7276 6.2C32.9836 6.296 33.1756 6.392 33.3036 6.488C33.3996 6.664 33.4476 6.96 33.4476 7.376C33.4476 7.536 33.3756 7.696 33.2316 7.856C33.1036 8 32.9356 8.072 32.7276 8.072L32.1516 8.048C31.8636 8.016 31.6396 8 31.4796 8C31.3036 8 31.0396 8.016 30.6876 8.048C31.0236 8.448 31.2796 8.872 31.4556 9.32C31.6476 9.768 31.7436 10.352 31.7436 11.072C31.7436 11.616 31.5436 12.184 31.1436 12.776C30.7436 13.368 30.2716 13.832 29.7276 14.168C28.8956 14.616 27.9276 14.848 26.8236 14.864C26.6956 14.992 26.5836 15.112 26.4876 15.224C26.4076 15.32 26.3676 15.4 26.3676 15.464C26.3676 15.64 26.5196 15.776 26.8236 15.872C27.1276 15.968 27.5916 16.04 28.2156 16.088C28.6956 16.12 29.2236 16.224 29.7996 16.4C30.3916 16.56 30.8556 16.744 31.1916 16.952ZM26.9676 12.896C27.7036 12.896 28.2956 12.696 28.7436 12.296C29.1916 11.896 29.4156 11.328 29.4156 10.592C29.4156 10.032 29.2156 9.576 28.8156 9.224C28.4156 8.872 27.9036 8.696 27.2796 8.696C26.8796 8.696 26.4476 8.768 25.9836 8.912C25.5356 9.04 25.2156 9.248 25.0236 9.536C24.9276 9.664 24.8316 9.912 24.7356 10.28C24.6396 10.632 24.5916 10.904 24.5916 11.096C24.5916 11.368 24.7036 11.648 24.9276 11.936C25.1676 12.208 25.4716 12.44 25.8396 12.632C26.2236 12.808 26.5996 12.896 26.9676 12.896ZM28.4796 18.104C27.5996 18.024 26.9756 17.944 26.6076 17.864C26.2556 17.8 25.9676 17.72 25.7436 17.624C24.9276 18.056 24.5196 18.528 24.5196 19.04C24.5196 19.52 24.7676 19.88 25.2636 20.12C25.7596 20.376 26.3276 20.504 26.9676 20.504C27.2556 20.504 27.6476 20.472 28.1436 20.408C28.6396 20.344 29.0556 20.232 29.3916 20.072C29.6156 19.96 29.7836 19.848 29.8956 19.736C30.0076 19.64 30.0636 19.456 30.0636 19.184C30.0636 18.848 29.8876 18.592 29.5356 18.416C29.1836 18.24 28.8316 18.136 28.4796 18.104ZM43.5683 10.976C43.5683 11.712 43.3843 12.336 43.0163 12.848C42.6483 13.344 42.1603 13.784 41.5523 14.168C40.7203 14.616 39.7523 14.848 38.6483 14.864C38.5843 15.056 38.5523 15.256 38.5523 15.464C38.5523 15.656 38.6563 15.8 38.8643 15.896C39.0883 15.976 39.4803 16.04 40.0403 16.088C40.5043 16.12 41.0243 16.224 41.6003 16.4C42.1923 16.56 42.6563 16.744 42.9923 16.952C43.4083 17.256 43.6963 17.584 43.8563 17.936C44.0323 18.288 44.1203 18.728 44.1203 19.256C44.1203 19.944 43.8003 20.52 43.1603 20.984C42.5363 21.464 41.8003 21.816 40.9523 22.04C40.1043 22.264 39.3603 22.376 38.7203 22.376C37.9523 22.376 37.2963 22.28 36.7523 22.088C36.2243 21.912 35.7203 21.664 35.2403 21.344C34.9043 21.104 34.6403 20.8 34.4483 20.432C34.2563 20.064 34.1603 19.68 34.1603 19.28C34.1603 18.88 34.2883 18.496 34.5443 18.128C34.8163 17.76 35.1443 17.44 35.5283 17.168C35.9123 16.912 36.2723 16.736 36.6083 16.64C36.4803 16.48 36.3843 16.344 36.3203 16.232C36.2723 16.104 36.2483 15.96 36.2483 15.8C36.2483 15.256 36.3843 14.8 36.6563 14.432C35.8883 14.176 35.2803 13.72 34.8323 13.064C34.4003 12.408 34.1843 11.64 34.1843 10.76C34.1843 10.184 34.3203 9.664 34.5923 9.2C34.8643 8.72 35.2403 8.264 35.7203 7.832C36.5363 7.096 37.6643 6.728 39.1043 6.728C39.2963 6.728 39.5603 6.76 39.8963 6.824C40.2323 6.888 40.5603 6.976 40.8803 7.088C41.3923 6.864 41.9923 6.632 42.6803 6.392C43.3683 6.152 43.8323 6.032 44.0723 6.032C44.4403 6.032 44.7123 6.096 44.8883 6.224C45.0803 6.336 45.1763 6.592 45.1763 6.992C45.1763 7.36 44.9603 7.624 44.5283 7.784C44.1123 7.944 43.4803 8.096 42.6323 8.24C43.2563 8.992 43.5683 9.904 43.5683 10.976ZM38.5763 12.896C39.5043 12.896 40.1763 12.704 40.5923 12.32C41.0243 11.936 41.2403 11.36 41.2403 10.592C41.2403 9.328 40.4963 8.696 39.0083 8.696C38.4323 8.696 37.9763 8.76 37.6403 8.888C37.3203 9.016 37.0563 9.232 36.8483 9.536C36.5603 9.92 36.4163 10.44 36.4163 11.096C36.4163 11.608 36.6243 12.04 37.0403 12.392C37.4723 12.728 37.9843 12.896 38.5763 12.896ZM36.4163 19.448C36.4163 19.72 36.6643 19.952 37.1603 20.144C37.6723 20.352 38.2163 20.456 38.7923 20.456C39.4323 20.456 40.0883 20.336 40.7603 20.096C41.4483 19.872 41.7923 19.568 41.7923 19.184C41.7923 18.624 41.2963 18.264 40.3043 18.104C39.9523 18.04 39.4403 17.92 38.7683 17.744C38.6883 17.728 38.5923 17.704 38.4803 17.672C38.3843 17.64 38.2803 17.608 38.1683 17.576C37.8163 17.704 37.4323 17.968 37.0163 18.368C36.6163 18.784 36.4163 19.144 36.4163 19.448ZM48.7478 13.28C48.7478 13.888 48.8358 14.36 49.0118 14.696C49.2038 15.016 49.4438 15.176 49.7318 15.176C49.8918 15.176 50.0438 15.168 50.1878 15.152C50.3318 15.12 50.4758 15.104 50.6198 15.104C50.7798 15.104 50.9158 15.184 51.0278 15.344C51.1558 15.504 51.2198 15.68 51.2198 15.872C51.2198 16.256 51.0358 16.56 50.6678 16.784C50.3158 16.992 49.8358 17.096 49.2278 17.096C48.7958 17.096 48.3558 16.968 47.9078 16.712C47.4758 16.44 47.1158 16.024 46.8278 15.464C46.5398 14.888 46.3958 14.176 46.3958 13.328C46.3958 11.504 46.4278 9.96 46.4918 8.696C46.5718 7.192 46.6118 5.296 46.6118 3.008C46.6118 2.288 46.6518 1.784 46.7318 1.496C46.8278 1.272 46.9798 1.104 47.1878 0.991999C47.4118 0.863999 47.6438 0.8 47.8838 0.8C48.1238 0.8 48.3318 0.84 48.5078 0.92C48.6998 1 48.8278 1.128 48.8918 1.304C48.9558 1.496 48.9958 1.688 49.0118 1.88C49.0438 2.056 49.0598 2.312 49.0598 2.648C49.0598 3.304 49.0358 3.936 48.9878 4.544C48.9558 5.28 48.9398 5.816 48.9398 6.152C48.8118 8.968 48.7478 11.344 48.7478 13.28ZM52.1367 11.504C52.1367 10.528 52.3527 9.72 52.7847 9.08C53.2167 8.424 53.8167 7.808 54.5847 7.232C54.8087 7.072 55.1847 6.936 55.7127 6.824C56.2407 6.696 56.7047 6.632 57.1047 6.632C57.5847 6.632 58.0887 6.736 58.6167 6.944C59.1607 7.136 59.6007 7.36 59.9367 7.616C60.5287 8.048 60.9367 8.552 61.1607 9.128C61.3847 9.688 61.4967 10.36 61.4967 11.144C61.4967 11.48 61.3047 11.808 60.9207 12.128C60.5527 12.432 60.1527 12.584 59.7207 12.584L58.8087 12.56C58.3447 12.56 57.6807 12.576 56.8167 12.608L56.3127 12.632C55.9607 12.664 55.6967 12.68 55.5207 12.68C55.2647 12.68 54.9127 12.648 54.4647 12.584C54.5287 13.336 54.8087 13.928 55.3047 14.36C55.8007 14.776 56.3367 14.984 56.9127 14.984C57.9207 14.984 58.6247 14.784 59.0247 14.384C59.3607 14.144 59.5847 13.992 59.6967 13.928C59.8087 13.864 59.9847 13.832 60.2247 13.832C60.4807 13.832 60.7047 13.952 60.8967 14.192C61.0887 14.432 61.1847 14.672 61.1847 14.912C61.1847 15.184 61.0167 15.464 60.6807 15.752C60.3607 16.024 59.9207 16.312 59.3607 16.616C59.0567 16.744 58.6407 16.856 58.1127 16.952C57.5847 17.048 57.1447 17.096 56.7927 17.096C56.2327 17.096 55.6087 16.936 54.9207 16.616C54.2327 16.28 53.7207 15.912 53.3847 15.512C53.0487 15.112 52.7527 14.544 52.4967 13.808C52.2567 13.072 52.1367 12.304 52.1367 11.504ZM56.9127 10.856C58.0487 10.856 58.8807 10.816 59.4087 10.736C59.3767 10.272 59.2327 9.896 58.9767 9.608C58.7207 9.304 58.3687 9.048 57.9207 8.84C57.7767 8.776 57.6487 8.728 57.5367 8.696C57.4247 8.664 57.2967 8.648 57.1527 8.648C56.4167 8.648 55.7927 8.848 55.2807 9.248C54.7847 9.648 54.4887 10.16 54.3927 10.784C55.1927 10.832 56.0327 10.856 56.9127 10.856Z" fill="#FFB65A"/>
</svg>
